# xmcd CD database file
#
# Track frame offsets:
#	150
#	24819
#	64863
#	83246
#	106988
#	137413
#	164185
#	188834
#	227082
#
# Disc length: 3377 seconds
#
# Revision: 0
# Processed by: cddbd v1.5.1PL2 Copyright (c) Steve Scherf et al.
# Submitted via: CDex 1.51
#
DISCID=6f0d2f09
DTITLE=Herlin Riley Quintet - Watch What You're Doing
DYEAR=1999
DGENRE=Jazz
TTITLE0=Watch What You're Doing
TTITLE1=New York Walk
TTITLE2=John Lewis
TTITLE3=Soscalah Blues
TTITLE4=Sunshine In My Pocket
TTITLE5=Coodie Coo
TTITLE6=Warm All Over
TTITLE7=Myrosa's Mirage
TTITLE8=Blood Groove
EXTD=YEAR: 1999
EXTT0=
EXTT1=
EXTT2=
EXTT3=
EXTT4=
EXTT5=
EXTT6=
EXTT7=
EXTT8=
PLAYORDER=
